# Blender 3.3.0
# www.blender.org
mtllib blocks1.mtl
o Cube
v 1.005222 2.066618 -0.816840
v 0.872463 2.066618 -0.944003
v 0.878187 2.193505 -0.817096
v 0.985365 2.066618 -0.880216
v 0.988223 2.129978 -0.816846
v 0.968976 2.127297 -0.877542
v 0.873200 2.129978 -0.927020
v 0.936634 2.066618 -0.926892
v 0.934668 2.127297 -0.910403
v 0.941594 2.176553 -0.816940
v 0.875301 2.176553 -0.880438
v 0.936147 2.160087 -0.877608
v 0.878805 -1.000000 -0.803750
v 1.005847 -0.873113 -0.803338
v 0.942326 -0.983000 -0.803544
v 0.988827 -0.936556 -0.803394
v 0.873113 2.066618 0.840779
v 1.000000 2.066618 0.713892
v 0.873113 2.193505 0.713892
v 0.936473 2.066618 0.823827
v 0.873113 2.129978 0.823827
v 0.933792 2.127297 0.807361
v 0.983048 2.129978 0.713892
v 0.983048 2.066618 0.777252
v 0.966582 2.127297 0.774571
v 0.873113 2.176553 0.777252
v 0.936473 2.176553 0.713892
v 0.933792 2.160087 0.774571
v 1.000000 -0.873113 0.713892
v 0.873113 -0.873113 0.840779
v 0.873113 -1.000000 0.713892
v 0.983048 -0.873113 0.777252
v 0.983048 -0.936473 0.713892
v 0.966582 -0.933792 0.774571
v 0.873113 -0.936473 0.823827
v 0.936473 -0.873113 0.823827
v 0.933792 -0.933792 0.807361
v 0.936473 -0.983048 0.713892
v 0.873113 -0.983048 0.777252
v 0.933792 -0.966582 0.774571
v -0.844188 2.066618 -0.830418
v -0.717139 2.193505 -0.829851
v -0.723174 2.066618 -0.956758
v -0.827185 2.129978 -0.830314
v -0.830199 2.066618 -0.893684
v -0.813557 2.127297 -0.890903
v -0.720123 2.176553 -0.893193
v -0.780550 2.176553 -0.830106
v -0.780725 2.160087 -0.890757
v -0.785779 2.066618 -0.940059
v -0.722338 2.129978 -0.939775
v -0.782285 2.127297 -0.923552
v -0.843562 -0.873113 -0.816916
v -0.716520 -1.000000 -0.816505
v -0.826542 -0.936556 -0.816861
v -0.780041 -0.983000 -0.816711
v -0.846799 2.066618 0.713892
v -0.719912 2.066618 0.840779
v -0.719912 2.193505 0.713892
v -0.829848 2.066618 0.777252
v -0.829848 2.129978 0.713892
v -0.813382 2.127297 0.774571
v -0.719912 2.129978 0.823827
v -0.783273 2.066618 0.823827
v -0.780591 2.127297 0.807361
v -0.783273 2.176553 0.713892
v -0.719912 2.176553 0.777252
v -0.780591 2.160087 0.774571
v -0.846799 -0.873113 0.713892
v -0.719912 -1.000000 0.713892
v -0.719912 -0.873113 0.840779
v -0.829848 -0.936473 0.713892
v -0.829848 -0.873113 0.777252
v -0.813382 -0.933792 0.774571
v -0.719912 -0.983048 0.777252
v -0.783273 -0.983048 0.713892
v -0.780591 -0.966582 0.774571
v -0.783273 -0.873113 0.823827
v -0.719912 -0.936473 0.823827
v -0.780591 -0.933792 0.807361
v 1.005222 0.476106 -0.816840
v 0.866427 0.602993 -1.070910
v 0.872463 0.729880 -0.944003
v 0.982774 0.538105 -0.898578
v 0.983715 0.556739 -0.878830
v 0.932187 0.584352 -0.991179
v 0.935321 0.649246 -0.925184
v -0.846799 0.494224 0.713892
v -0.719912 0.494224 0.840779
v -0.829800 0.494224 0.777335
v -0.783356 0.494224 0.823779
v 1.000000 0.494224 0.713892
v 0.873113 0.494224 0.840779
v 0.983000 0.494224 0.777335
v 0.936556 0.494224 0.823779
v -0.723174 0.729880 -0.956758
v -0.728898 0.602993 -1.083665
v -0.844188 0.476105 -0.830418
v -0.784324 0.649218 -0.938330
v -0.787197 0.584346 -1.002174
v -0.828409 0.556767 -0.892304
v -0.829204 0.538114 -0.909902
v 0.873113 -1.000000 -2.506751
v 0.873113 -0.873113 -2.633639
v 1.000000 -0.873113 -2.506751
v 0.873113 -0.983048 -2.570112
v 0.936473 -0.983048 -2.506751
v 0.933792 -0.966582 -2.567430
v 0.936473 -0.873113 -2.616687
v 0.873113 -0.936473 -2.616687
v 0.933792 -0.933792 -2.600220
v 0.983048 -0.936473 -2.506751
v 0.983048 -0.873113 -2.570112
v 0.966582 -0.933792 -2.567430
v -0.719912 -1.000000 -2.506751
v -0.846799 -0.873113 -2.506751
v -0.719912 -0.873113 -2.633639
v -0.783273 -0.983048 -2.506751
v -0.719912 -0.983048 -2.570112
v -0.780591 -0.966582 -2.567430
v -0.829848 -0.873113 -2.570112
v -0.829848 -0.936473 -2.506751
v -0.813382 -0.933792 -2.567430
v -0.719912 -0.936473 -2.616687
v -0.783273 -0.873113 -2.616687
v -0.780591 -0.933792 -2.600220
v 1.000000 0.476105 -2.506751
v 0.873113 0.476105 -2.633639
v 0.873113 0.602993 -2.506751
v 0.983048 0.476105 -2.570112
v 0.983048 0.539466 -2.506751
v 0.966582 0.536784 -2.567430
v 0.873113 0.539466 -2.616687
v 0.936473 0.476105 -2.616687
v 0.933792 0.536784 -2.600220
v 0.936473 0.586041 -2.506751
v 0.873113 0.586041 -2.570112
v 0.933792 0.569575 -2.567430
v -0.846799 0.476105 -2.506751
v -0.719912 0.602993 -2.506751
v -0.719912 0.476105 -2.633639
v -0.829848 0.539466 -2.506751
v -0.829848 0.476105 -2.570112
v -0.813382 0.536784 -2.567430
v -0.719912 0.586041 -2.570112
v -0.783273 0.586041 -2.506751
v -0.780591 0.569575 -2.567430
v -0.783273 0.476105 -2.616687
v -0.719912 0.539466 -2.616687
v -0.780591 0.536784 -2.600220
v 1.005222 0.476106 -0.816840
v 0.866427 0.602993 -1.070910
v 0.872463 0.729880 -0.944003
v 0.982774 0.538105 -0.898578
v 0.983715 0.556739 -0.878830
v 0.967508 0.581685 -0.922836
v 0.868286 0.621819 -1.008625
v 0.932187 0.584352 -0.991179
v 0.931095 0.603106 -0.965434
v 0.935321 0.649246 -0.925184
v 0.870463 0.667601 -0.962836
v 0.932110 0.624199 -0.944022
v -0.723174 0.729880 -0.956758
v -0.728898 0.602993 -1.083665
v -0.844188 0.476105 -0.830418
v -0.725074 0.667601 -0.975591
v -0.784324 0.649218 -0.938330
v -0.783637 0.624186 -0.957005
v -0.787197 0.584346 -1.002174
v -0.727139 0.621819 -1.021380
v -0.784570 0.603103 -0.977792
v -0.828409 0.556767 -0.892304
v -0.829204 0.538114 -0.909902
v -0.816394 0.581702 -0.935429
vn -0.1300 0.6171 -0.7761
vn -0.1297 0.1305 -0.9829
vn 0.1363 0.1290 -0.9822
vn 0.1339 0.6179 -0.7748
vn 0.1296 -0.1296 0.9831
vn 0.1304 -0.0000 0.9915
vn -0.1304 -0.0000 0.9915
vn -0.1296 -0.1296 0.9831
vn -0.9832 -0.1297 0.1287
vn -0.9916 -0.0001 0.1295
vn -0.8762 0.4815 -0.0229
vn -0.9914 -0.1306 -0.0001
vn 0.8733 0.4862 -0.0304
vn 0.9915 -0.1304 0.0002
vn 0.9828 -0.1296 -0.1312
vn 0.9814 0.1403 -0.1309
vn 0.1320 0.9824 -0.1320
vn -0.1270 0.9837 -0.1273
vn -0.1296 0.9831 0.1295
vn 0.1294 0.9831 0.1298
vn 0.1306 -0.9914 -0.0000
vn -0.1302 -0.9915 -0.0000
vn -0.1297 -0.9831 -0.1295
vn 0.1295 -0.9831 -0.1298
vn 0.9912 0.0001 0.1322
vn 0.9828 -0.1296 0.1315
vn 0.1294 -0.9831 0.1298
vn -0.1297 -0.9831 0.1294
vn -0.9835 0.1267 -0.1288
vn -0.9832 -0.1297 -0.1287
vn -0.9832 0.1297 0.1288
vn -0.9849 0.1304 -0.1135
vn 0.1296 0.1296 0.9831
vn -0.1296 0.1296 0.9831
vn -0.0985 0.9951 -0.0002
vn 0.0908 0.9959 0.0005
vn 0.1315 0.9829 -0.1292
vn -0.1353 0.9823 -0.1299
vn -0.1296 -0.1296 -0.9831
vn -0.1296 0.1296 -0.9831
vn 0.1296 0.1296 -0.9831
vn 0.1296 -0.1296 -0.9831
vn 0.9799 0.1292 -0.1520
vn 0.8444 0.1191 -0.5223
vn 0.7621 0.4426 -0.4726
vn 0.8611 0.4895 -0.1378
vn 0.4848 0.1191 -0.8665
vn 0.4394 0.4426 -0.7817
vn 0.1241 0.4899 -0.8629
vn 0.1227 0.8603 -0.4949
vn 0.4424 0.7688 -0.4618
vn 0.4936 0.8598 -0.1305
vn 0.4916 0.1216 0.8623
vn 0.4473 0.4473 0.7744
vn 0.1216 0.4915 0.8623
vn 0.8623 0.1216 0.4916
vn 0.7744 0.4473 0.4473
vn 0.9828 0.1297 0.1313
vn 0.8620 0.4917 0.1230
vn 0.4912 0.8624 0.1224
vn 0.4474 0.7744 0.4473
vn 0.1216 0.8623 0.4915
vn 0.8623 -0.1216 0.4916
vn 0.7744 -0.4473 0.4473
vn 0.8620 -0.4917 0.1232
vn 0.4916 -0.1216 0.8623
vn 0.4473 -0.4473 0.7744
vn 0.1216 -0.4915 0.8623
vn 0.1216 -0.8623 0.4915
vn 0.4474 -0.7744 0.4473
vn 0.4912 -0.8624 0.1225
vn -0.8629 0.4946 -0.1039
vn -0.7857 0.4534 -0.4208
vn -0.8754 0.1235 -0.4674
vn -0.4888 0.8652 -0.1121
vn -0.4512 0.7808 -0.4322
vn -0.1200 0.8645 -0.4880
vn -0.1183 0.4938 -0.8615
vn -0.4543 0.4534 -0.7669
vn -0.5039 0.1235 -0.8549
vn -0.8623 0.1216 0.4916
vn -0.7744 0.4473 0.4473
vn -0.8624 0.4917 0.1208
vn -0.4916 0.1216 0.8623
vn -0.4473 0.4473 0.7744
vn -0.1216 0.4915 0.8623
vn -0.1216 0.8623 0.4915
vn -0.4474 0.7744 0.4473
vn -0.4916 0.8624 0.1211
vn -0.8624 -0.4917 0.1207
vn -0.7744 -0.4473 0.4473
vn -0.8623 -0.1216 0.4916
vn -0.4917 -0.8623 0.1210
vn -0.4473 -0.7744 0.4473
vn -0.1216 -0.8623 0.4915
vn -0.1216 -0.4915 0.8623
vn -0.4473 -0.4473 0.7744
vn -0.4916 -0.1216 0.8623
vn -0.6533 0.7219 -0.2280
vn -0.6451 0.7596 -0.0830
vn -0.0774 0.9970 -0.0088
vn 0.1050 0.8701 -0.4816
vn -0.0976 0.8730 -0.4779
vn -0.5608 0.8279 0.0005
vn -0.6553 0.7478 -0.1070
vn 0.4337 0.7074 -0.5582
vn 0.6348 0.7198 -0.2808
vn 0.6329 0.7622 -0.1361
vn 0.4189 0.8277 -0.3735
vn 0.5408 0.8411 -0.0004
vn 0.6401 0.7519 -0.1579
vn 0.0791 0.9967 -0.0156
vn 0.3216 0.9469 0.0009
vn 0.0821 0.9872 -0.1367
vn 0.3823 0.8986 -0.2154
vn -0.3445 0.9388 -0.0001
vn -0.4046 0.8937 -0.1942
vn -0.0859 0.9878 -0.1298
vn -0.4541 0.7074 -0.5417
vn -0.4315 0.8333 -0.3455
vn 0.1216 -0.8623 -0.4915
vn 0.4473 -0.7744 -0.4473
vn 0.4912 -0.8624 -0.1224
vn 0.1216 -0.4915 -0.8623
vn 0.4473 -0.4473 -0.7744
vn 0.4915 -0.1216 -0.8623
vn 0.8623 -0.1216 -0.4915
vn 0.7744 -0.4473 -0.4473
vn 0.8620 -0.4917 -0.1230
vn -0.4916 -0.8623 -0.1211
vn -0.4473 -0.7744 -0.4473
vn -0.1216 -0.8623 -0.4915
vn -0.8624 -0.4917 -0.1207
vn -0.7744 -0.4473 -0.4473
vn -0.8623 -0.1216 -0.4915
vn -0.4915 -0.1216 -0.8623
vn -0.4473 -0.4474 -0.7744
vn -0.1216 -0.4915 -0.8623
vn 0.8623 0.1216 -0.4915
vn 0.7744 0.4473 -0.4473
vn 0.8537 0.5063 -0.1214
vn 0.4915 0.1216 -0.8623
vn 0.4474 0.4473 -0.7744
vn 0.1216 0.4915 -0.8623
vn 0.1216 0.8623 -0.4915
vn 0.4473 0.7744 -0.4473
vn 0.4879 0.8646 -0.1205
vn -0.8667 0.4838 -0.1212
vn -0.7744 0.4473 -0.4473
vn -0.8623 0.1216 -0.4915
vn -0.5018 0.8564 -0.1218
vn -0.4473 0.7744 -0.4473
vn -0.1216 0.8623 -0.4915
vn -0.1216 0.4915 -0.8623
vn -0.4474 0.4473 -0.7744
vn -0.4915 0.1216 -0.8623
vn -0.4995 -0.8663 -0.0001
vn -0.8659 -0.5003 -0.0001
vn -0.4999 -0.0000 0.8661
vn -0.8661 -0.0000 0.4999
vn 0.4999 -0.0000 0.8661
vn 0.8661 -0.0000 0.4999
vn 0.5002 -0.8659 0.0001
vn 0.8661 -0.4999 0.0002
vn 0.8796 0.3197 -0.3522
vn 0.7237 0.4956 -0.4803
vn 0.3103 0.8091 -0.4990
vn 0.3119 0.4807 -0.8195
vn 0.7237 0.4477 -0.5253
vn -0.3239 0.4970 -0.8050
vn -0.7551 0.4635 -0.4636
vn -0.3255 0.8154 -0.4786
vn -0.7555 0.4931 -0.4314
vn -0.9060 0.3146 -0.2831
vt 0.615105 0.516688
vt 0.615105 0.484159
vt 0.640861 0.516536
vt 0.615106 0.508241
vt 0.620046 0.516584
vt 0.619837 0.508493
vt 0.619837 0.496235
vt 0.620046 0.484258
vt 0.615105 0.492177
vt 0.619837 0.491938
vt 0.632944 0.516593
vt 0.640461 0.500000
vt 0.625000 0.484539
vt 0.632864 0.500000
vt 0.625000 0.492136
vt 0.359139 0.500000
vt 0.384895 0.500000
vt 0.367070 0.500000
vt 0.379947 0.499945
vt 0.615105 0.765861
vt 0.615105 0.733312
vt 0.640861 0.733474
vt 0.615105 0.757941
vt 0.640861 0.750000
vt 0.625000 0.765861
vt 0.625000 0.758276
vt 0.633276 0.750000
vt 0.620046 0.733312
vt 0.615105 0.741645
vt 0.619837 0.741292
vt 0.629177 0.741343
vt 0.640861 0.741747
vt 0.632941 0.733414
vt 0.633276 0.741372
vt 0.384895 0.733312
vt 0.384895 0.765861
vt 0.359139 0.733474
vt 0.384895 0.741645
vt 0.379954 0.733312
vt 0.380163 0.741292
vt 0.370823 0.741344
vt 0.359139 0.750000
vt 0.375000 0.765861
vt 0.384895 0.757941
vt 0.375000 0.758276
vt 0.366724 0.750000
vt 0.367059 0.733414
vt 0.359139 0.741747
vt 0.366724 0.741372
vt 0.615106 0.234139
vt 0.859139 0.516028
vt 0.615105 0.265841
vt 0.875000 0.515972
vt 0.625000 0.234028
vt 0.615105 0.241958
vt 0.870825 0.508325
vt 0.619837 0.241514
vt 0.619837 0.254584
vt 0.858752 0.500000
vt 0.625000 0.266248
vt 0.867056 0.515968
vt 0.866317 0.500000
vt 0.625000 0.258683
vt 0.615105 0.258032
vt 0.620046 0.265953
vt 0.619837 0.258475
vt 0.384895 0.250000
vt 0.140861 0.500000
vt 0.125000 0.500105
vt 0.375000 0.249895
vt 0.375000 0.250000
vt 0.125000 0.500000
vt 0.132930 0.500000
vt 0.615105 0.015861
vt 0.615106 0.984139
vt 0.859139 0.733981
vt 0.615105 0.007941
vt 0.875000 0.734139
vt 0.625000 0.015861
vt 0.625000 0.008276
vt 0.875000 0.741724
vt 0.859139 0.750000
vt 0.625000 0.984139
vt 0.615105 1.000000
vt 0.615105 0.000000
vt 0.625000 0.000000
vt 0.625000 0.991724
vt 0.866724 0.750000
vt 0.867059 0.734039
vt 0.859139 0.741959
vt 0.866724 0.741647
vt 0.384895 0.015861
vt 0.140861 0.733981
vt 0.384895 0.984139
vt 0.125000 0.734139
vt 0.375000 0.015861
vt 0.384895 0.007941
vt 0.375000 0.008276
vt 0.125000 0.741724
vt 0.140861 0.741959
vt 0.132941 0.734039
vt 0.133276 0.741647
vt 0.384895 1.000000
vt 0.384895 0.000000
vt 0.140861 0.750000
vt 0.375000 0.984139
vt 0.375000 0.991724
vt 0.375000 0.000000
vt 0.133276 0.750000
vt 0.490105 0.500000
vt 0.490105 0.516688
vt 0.500000 0.484139
vt 0.509895 0.484159
vt 0.494940 0.500000
vt 0.496393 0.508413
vt 0.500000 0.491889
vt 0.503607 0.492014
vt 0.500000 0.015861
vt 0.500000 0.984139
vt 0.500000 0.007930
vt 0.500000 1.000000
vt 0.500000 0.000000
vt 0.500000 0.733312
vt 0.500000 0.765861
vt 0.500000 0.741656
vt 0.500000 0.757930
vt 0.509894 0.265841
vt 0.500000 0.265861
vt 0.490105 0.234139
vt 0.490105 0.250000
vt 0.503605 0.258215
vt 0.500000 0.258110
vt 0.496395 0.241775
vt 0.494941 0.250000
vt 0.359139 0.500000
vt 0.384895 0.484139
vt 0.384895 0.500000
vt 0.359139 0.500000
vt 0.375000 0.484139
vt 0.367059 0.500000
vt 0.366724 0.500000
vt 0.375000 0.491724
vt 0.384894 0.492059
vt 0.379954 0.484139
vt 0.380163 0.491724
vt 0.379954 0.500000
vt 0.384895 0.500000
vt 0.380163 0.500000
vt 0.380163 0.495823
vt 0.140861 0.500000
vt 0.384895 0.250000
vt 0.384895 0.265861
vt 0.132941 0.500000
vt 0.140861 0.500000
vt 0.375000 0.265861
vt 0.133276 0.500000
vt 0.375000 0.258276
vt 0.384895 0.250000
vt 0.375000 0.250000
vt 0.125000 0.500000
vt 0.129177 0.500000
vt 0.380163 0.250000
vt 0.380163 0.254177
vt 0.379954 0.265861
vt 0.384895 0.257941
vt 0.380163 0.258276
vt 0.490105 0.500000
vt 0.490105 0.484139
vt 0.500000 0.484139
vt 0.490105 0.500000
vt 0.495046 0.500000
vt 0.494837 0.500000
vt 0.495046 0.484139
vt 0.490105 0.492059
vt 0.494837 0.491724
vt 0.500000 0.492059
vt 0.500000 0.484139
vt 0.500000 0.491724
vt 0.490105 0.250000
vt 0.500000 0.265861
vt 0.490105 0.265861
vt 0.495046 0.250000
vt 0.490105 0.250000
vt 0.494837 0.250000
vt 0.500000 0.265861
vt 0.500000 0.257941
vt 0.500000 0.258276
vt 0.490105 0.257941
vt 0.495046 0.265861
vt 0.494837 0.258276
vt 0.490105 0.516688
vt 0.490105 0.500000
vt 0.500000 0.484139
vt 0.509895 0.484159
vt 0.494940 0.500000
vt 0.496393 0.508413
vt 0.496393 0.500000
vt 0.498339 0.500000
vt 0.500000 0.484011
vt 0.500000 0.491889
vt 0.500000 0.491604
vt 0.503607 0.492014
vt 0.505038 0.483901
vt 0.501654 0.491605
vt 0.509894 0.265841
vt 0.500000 0.265861
vt 0.490105 0.250000
vt 0.490105 0.234139
vt 0.505038 0.265597
vt 0.503605 0.258215
vt 0.501653 0.258293
vt 0.500000 0.258110
vt 0.500000 0.265720
vt 0.500000 0.258297
vt 0.496395 0.241775
vt 0.494941 0.250000
vt 0.494941 0.243977
vt 0.498340 0.247091
s 1
usemtl Material
f 96/127/1 43/52/2 2/2/3 83/113/4
f 30/36/5 93/124/6 89/119/7 71/94/8
f 69/92/9 88/118/10 98/129/11 53/67/12
f 81/110/13 14/17/14 105/137/15 127/167/16
f 3/3/17 42/51/18 59/76/19 19/22/20
f 13/16/21 54/68/22 115/150/23 103/135/24
f 14/17/14 81/111/13 92/123/25 29/35/26
f 54/68/22 13/16/21 31/37/27 70/93/28
f 53/67/12 98/130/11 139/179/29 116/151/30
f 88/118/10 57/74/31 41/50/32 98/129/11
f 93/124/6 17/20/33 58/75/34 89/119/7
f 97/128/35 82/112/36 129/169/37 140/180/38
f 117/152/39 141/181/40 128/168/41 104/136/42
f 1/1/43 4/4/44 6/6/45 5/5/46
f 4/4/44 8/9/47 9/10/48 6/6/45
f 2/2/3 7/8/49 9/10/48 8/9/47
f 7/8/49 11/13/50 12/15/51 9/10/48
f 3/3/17 10/11/52 12/14/51 11/12/50
f 10/11/52 5/5/46 6/6/45 12/14/51
f 6/7/45 9/10/48 12/15/51
f 17/20/33 20/23/53 22/26/54 21/25/55
f 20/23/53 24/29/56 25/30/57 22/26/54
f 18/21/58 23/28/59 25/30/57 24/29/56
f 23/28/59 27/33/60 28/34/61 25/30/57
f 19/22/20 26/32/62 28/34/61 27/33/60
f 26/32/62 21/24/55 22/27/54 28/34/61
f 22/27/54 25/31/57 28/34/61
f 29/35/26 32/38/63 34/40/64 33/39/65
f 32/38/63 36/44/66 37/45/67 34/40/64
f 30/36/5 35/43/68 37/45/67 36/44/66
f 35/42/68 39/48/69 40/49/70 37/46/67
f 31/37/27 38/47/71 40/49/70 39/48/69
f 38/47/71 33/39/65 34/40/64 40/49/70
f 34/41/64 37/46/67 40/49/70
f 41/50/32 44/54/72 46/57/73 45/55/74
f 44/53/72 48/61/75 49/62/76 46/56/73
f 42/51/18 47/59/77 49/62/76 48/61/75
f 47/60/77 51/65/78 52/66/79 49/63/76
f 43/52/2 50/64/80 52/66/79 51/65/78
f 50/64/80 45/55/74 46/57/73 52/66/79
f 46/58/73 49/63/76 52/66/79
f 57/74/31 60/77/81 62/80/82 61/79/83
f 60/77/81 64/85/84 65/86/85 62/80/82
f 58/75/34 63/83/86 65/87/85 64/84/84
f 63/82/86 67/90/87 68/91/88 65/88/85
f 59/76/19 66/89/89 68/91/88 67/90/87
f 66/89/89 61/78/83 62/81/82 68/91/88
f 62/81/82 65/88/85 68/91/88
f 69/92/9 72/96/90 74/98/91 73/97/92
f 72/95/90 76/101/93 77/102/94 74/99/91
f 70/93/28 75/100/95 77/102/94 76/101/93
f 75/100/95 79/105/96 80/109/97 77/102/94
f 71/94/8 78/103/98 80/107/97 79/106/96
f 78/104/98 73/97/92 74/98/91 80/108/97
f 74/99/91 77/102/94 80/109/97
f 98/129/11 101/133/99 172/215/100 165/208/101
f 96/127/1 83/113/4 153/194/102 163/205/103
f 102/134/104 98/130/11 165/207/101 173/216/105
f 87/117/106 85/115/107 155/196/108 160/202/109
f 81/110/13 84/114/110 154/195/111 151/192/112
f 85/115/107 81/111/13 151/191/112 155/196/108
f 86/116/113 82/112/36 152/193/114 158/200/115
f 83/113/4 87/117/106 160/202/109 153/194/102
f 100/132/116 102/134/104 173/216/105 169/212/117
f 82/112/36 97/128/35 164/206/118 152/193/114
f 101/133/99 99/131/119 167/210/120 172/215/100
f 103/135/24 106/138/121 108/141/122 107/140/123
f 106/139/121 110/144/124 111/145/125 108/142/122
f 104/136/42 109/143/126 111/145/125 110/144/124
f 109/143/126 113/147/127 114/148/128 111/145/125
f 105/137/15 112/146/129 114/148/128 113/147/127
f 112/146/129 107/140/123 108/141/122 114/148/128
f 108/142/122 111/145/125 114/149/128
f 115/150/23 118/153/130 120/156/131 119/154/132
f 118/153/130 122/160/133 123/161/134 120/156/131
f 116/151/30 121/158/135 123/162/134 122/159/133
f 121/158/135 125/165/136 126/166/137 123/162/134
f 117/152/39 124/164/138 126/166/137 125/165/136
f 124/164/138 119/155/132 120/157/131 126/166/137
f 120/157/131 123/163/134 126/166/137
f 127/167/16 130/170/139 132/172/140 131/171/141
f 130/170/139 134/174/142 135/175/143 132/172/140
f 128/168/41 133/173/144 135/175/143 134/174/142
f 133/173/144 137/177/145 138/178/146 135/175/143
f 129/169/37 136/176/147 138/178/146 137/177/145
f 136/176/147 131/171/141 132/172/140 138/178/146
f 132/172/140 135/175/143 138/178/146
f 139/179/29 142/182/148 144/184/149 143/183/150
f 142/182/148 146/186/151 147/187/152 144/184/149
f 140/180/38 145/185/153 147/187/152 146/186/151
f 145/185/153 149/189/154 150/190/155 147/187/152
f 141/181/40 148/188/156 150/190/155 149/189/154
f 148/188/156 143/183/150 144/184/149 150/190/155
f 144/184/149 147/187/152 150/190/155
f 54/68/22 70/93/28 76/101/93 56/73/157
f 56/73/157 76/101/93 72/95/90 55/69/158
f 55/70/158 72/96/90 69/92/9 53/67/12
f 89/119/7 58/75/34 64/84/84 91/121/159
f 91/122/159 64/85/84 60/77/81 90/120/160
f 90/120/160 60/77/81 57/74/31 88/118/10
f 93/124/6 30/36/5 36/44/66 95/126/161
f 95/126/161 36/44/66 32/38/63 94/125/162
f 94/125/162 32/38/63 29/35/26 92/123/25
f 19/22/20 59/76/19 67/90/87 26/32/62
f 26/32/62 67/90/87 63/82/86 21/24/55
f 21/25/55 63/83/86 58/75/34 17/20/33
f 3/3/17 19/22/20 27/33/60 10/11/52
f 10/11/52 27/33/60 23/28/59 5/5/46
f 5/5/46 23/28/59 18/21/58 1/1/43
f 70/93/28 31/37/27 39/48/69 75/100/95
f 75/100/95 39/48/69 35/42/68 79/105/96
f 79/106/96 35/43/68 30/36/5 71/94/8
f 59/76/19 42/51/18 48/61/75 66/89/89
f 66/89/89 48/61/75 44/53/72 61/78/83
f 61/79/83 44/54/72 41/50/32 57/74/31
f 42/51/18 3/3/17 11/12/50 47/59/77
f 47/60/77 11/13/50 7/8/49 51/65/78
f 51/65/78 7/8/49 2/2/3 43/52/2
f 31/37/27 13/16/21 15/18/163 38/47/71
f 38/47/71 15/18/163 16/19/164 33/39/65
f 33/39/65 16/19/164 14/17/14 29/35/26
f 1/1/43 81/111/13 85/115/107 4/4/44
f 4/4/44 85/115/107 87/117/106 8/9/47
f 8/9/47 87/117/106 83/113/4 2/2/3
f 71/94/8 89/119/7 91/121/159 78/103/98
f 78/104/98 91/122/159 90/120/160 73/97/92
f 73/97/92 90/120/160 88/118/10 69/92/9
f 17/20/33 93/124/6 95/126/161 20/23/53
f 20/23/53 95/126/161 94/125/162 24/29/56
f 24/29/56 94/125/162 92/123/25 18/21/58
f 43/52/2 96/127/1 99/131/119 50/64/80
f 50/64/80 99/131/119 101/133/99 45/55/74
f 45/55/74 101/133/99 98/129/11 41/50/32
f 84/114/110 86/116/113 158/200/115 154/195/111
f 97/128/35 100/132/116 169/212/117 164/206/118
f 99/131/119 96/127/1 163/205/103 167/210/120
f 103/135/24 115/150/23 119/154/132 106/138/121
f 106/139/121 119/155/132 124/164/138 110/144/124
f 110/144/124 124/164/138 117/152/39 104/136/42
f 127/167/16 105/137/15 113/147/127 130/170/139
f 130/170/139 113/147/127 109/143/126 134/174/142
f 134/174/142 109/143/126 104/136/42 128/168/41
f 141/181/40 117/152/39 125/165/136 148/188/156
f 148/188/156 125/165/136 121/158/135 143/183/150
f 143/183/150 121/158/135 116/151/30 139/179/29
f 140/180/38 129/169/37 137/177/145 145/185/153
f 145/185/153 137/177/145 133/173/144 149/189/154
f 149/189/154 133/173/144 128/168/41 141/181/40
f 53/67/12 116/151/30 122/159/133 55/71/158
f 55/72/158 122/160/133 118/153/130 56/73/157
f 56/73/157 118/153/130 115/150/23 54/68/22
f 105/137/15 14/17/14 16/19/164 112/146/129
f 112/146/129 16/19/164 15/18/163 107/140/123
f 107/140/123 15/18/163 13/16/21 103/135/24
f 129/169/37 82/112/36 86/116/113 136/176/147
f 136/176/147 86/116/113 84/114/110 131/171/141
f 131/171/141 84/114/110 81/110/13 127/167/16
f 97/128/35 140/180/38 146/186/151 100/132/116
f 100/132/116 146/186/151 142/182/148 102/134/104
f 102/134/104 142/182/148 139/179/29 98/130/11
f 81/111/13 1/1/43 18/21/58 92/123/25
f 151/192/112 154/195/111 156/198/165 155/197/108
f 154/195/111 158/200/115 159/201/166 156/198/165
f 152/193/114 157/199/167 159/201/166 158/200/115
f 157/199/167 161/203/168 162/204/169 159/201/166
f 153/194/102 160/202/109 162/204/169 161/203/168
f 160/202/109 155/197/108 156/198/165 162/204/169
f 156/198/165 159/201/166 162/204/169
f 163/205/103 166/209/170 168/211/171 167/210/120
f 166/209/170 170/213/172 171/214/173 168/211/171
f 164/206/118 169/212/117 171/214/173 170/213/172
f 169/212/117 173/217/105 174/218/174 171/214/173
f 165/208/101 172/215/100 174/218/174 173/217/105
f 172/215/100 167/210/120 168/211/171 174/218/174
f 168/211/171 171/214/173 174/218/174
f 163/205/103 153/194/102 161/203/168 166/209/170
f 166/209/170 161/203/168 157/199/167 170/213/172
f 170/213/172 157/199/167 152/193/114 164/206/118
